#Comment line ignore any data following # character 
#Hierarchical Translation and Rotation (.htr) file 
[Header]	
#Header keywords are followed by a single value 
FileType HTR		#Single word string
DataType HTRS		#Translation followed by rotation and scale data
FileVersion 1		#integer
NumSegments 64		#integer
NumFrames 3		#integer
DataFrameRate 30		#integer, data frame rate in this file
EulerRotationOrder ZYX
CalibrationUnits mm
RotationUnits Degrees
GlobalAxisofGravity Y
BoneLengthAxis Y
ScaleFactor 1.00
[SegmentNames&Hierarchy]
#CHILD	PARENT
Pinger_Root GLOBAL
Pelvis Pinger_Root
L_Hip Pelvis
R_Hip Pelvis
Rear_Leg01 Pelvis
Spine1 Pelvis
L_Leg01 L_Hip
L_Leg02 L_Leg01
L_Leg03 L_Leg02
L_Foot L_Leg03
L_Toe1_01 L_Foot
L_Toe2_01 L_Foot
L_Toe3_01 L_Foot
planeAlignerLeft L_Foot
L_Toe1_02 L_Toe1_01
L_Toe1_03 L_Toe1_02
L_Toe2_02 L_Toe2_01
L_Toe2_03 L_Toe2_02
L_Toe3_02 L_Toe3_01
L_Toe3_03 L_Toe3_02
planeLockWeightLeft planeAlignerLeft
R_Leg01 R_Hip
R_Leg02 R_Leg01
R_Leg03 R_Leg02
R_Foot R_Leg03
planeAlignerRight R_Foot
R_Toe1_01 R_Foot
R_Toe2_01 R_Foot
R_Toe3_01 R_Foot
planeLockWeightRight planeAlignerRight
R_Toe1_02 R_Toe1_01
R_Toe1_03 R_Toe1_02
R_Toe2_02 R_Toe2_01
R_Toe2_03 R_Toe2_02
R_Toe3_02 R_Toe3_01
R_Toe3_03 R_Toe3_02
Rear_Leg02 Rear_Leg01
Rear_Leg03 Rear_Leg02
Rear_Leg04 Rear_Leg03
Rear_Foot Rear_Leg04
planeAlignerCenter Rear_Foot
Rear_Toe1_01 Rear_Foot
Rear_Toe2_01 Rear_Foot
Rear_Toe3_01 Rear_Foot
planeLockWeightCenter planeAlignerCenter
Rear_Toe1_02 Rear_Toe1_01
Rear_Toe1_03 Rear_Toe1_02
Rear_Toe2_02 Rear_Toe2_01
Rear_Toe2_03 Rear_Toe2_02
Rear_Toe3_02 Rear_Toe3_01
Rear_Toe3_03 Rear_Toe3_02
Back_Bone Spine1
Head Spine1
Motor_Bone Back_Bone
Ping_Mechanism Back_Bone
BN_LookIK Head
bottomMouth Head
L_Mouth01 Head
L_mouthFront Head
mouthGun Head
R_Mouth01 Head
R_mouthFront Head
TopMouth Head
weapon_bone Head
[BasePosition]
#SegmentName Tx, Ty, Tz, Rx, Ry, Rz, BoneLength
Pinger_Root 0.000000 0.000000 0.000000 -90.000000 0.000000 0.000000 10.000000 
Pelvis 0.000000 0.000000 0.000000 0.000000 0.000000 0.000000 10.000000 
L_Hip 0.000000 0.000000 0.000000 0.000000 0.000000 0.000000 10.000000 
R_Hip 0.000000 0.000000 0.000000 0.000000 0.000000 0.000000 10.000000 
Rear_Leg01 0.000000 0.000000 0.000000 0.000000 0.000000 0.000000 10.000000 
Spine1 0.000000 0.000000 0.000000 0.000000 0.000000 0.000000 10.000000 
L_Leg01 0.000000 0.000000 0.000000 0.000000 0.000000 0.000000 10.000000 
L_Leg02 0.000000 0.000000 0.000000 0.000000 0.000000 0.000000 10.000000 
L_Leg03 0.000000 0.000000 0.000000 0.000000 0.000000 0.000000 10.000000 
L_Foot 0.000000 0.000000 0.000000 0.000000 0.000000 0.000000 10.000000 
L_Toe1_01 0.000000 0.000000 0.000000 0.000000 0.000000 0.000000 10.000000 
L_Toe2_01 0.000000 0.000000 0.000000 0.000000 0.000000 0.000000 10.000000 
L_Toe3_01 0.000000 0.000000 0.000000 0.000000 0.000000 0.000000 10.000000 
planeAlignerLeft 0.000000 0.000000 0.000000 0.000000 0.000000 0.000000 10.000000 
L_Toe1_02 0.000000 0.000000 0.000000 0.000000 0.000000 0.000000 10.000000 
L_Toe1_03 0.000000 0.000000 0.000000 0.000000 0.000000 0.000000 10.000000 
L_Toe2_02 0.000000 0.000000 0.000000 0.000000 0.000000 0.000000 10.000000 
L_Toe2_03 0.000000 0.000000 0.000000 0.000000 0.000000 0.000000 10.000000 
L_Toe3_02 0.000000 0.000000 0.000000 0.000000 0.000000 0.000000 10.000000 
L_Toe3_03 0.000000 0.000000 0.000000 0.000000 0.000000 0.000000 10.000000 
planeLockWeightLeft 0.000000 0.000000 0.000000 0.000000 0.000000 0.000000 10.000000 
R_Leg01 0.000000 0.000000 0.000000 0.000000 0.000000 0.000000 10.000000 
R_Leg02 0.000000 0.000000 0.000000 0.000000 0.000000 0.000000 10.000000 
R_Leg03 0.000000 0.000000 0.000000 0.000000 0.000000 0.000000 10.000000 
R_Foot 0.000000 0.000000 0.000000 0.000000 0.000000 0.000000 10.000000 
planeAlignerRight 0.000000 0.000000 0.000000 0.000000 0.000000 0.000000 10.000000 
R_Toe1_01 0.000000 0.000000 0.000000 0.000000 0.000000 0.000000 10.000000 
R_Toe2_01 0.000000 0.000000 0.000000 0.000000 0.000000 0.000000 10.000000 
R_Toe3_01 0.000000 0.000000 0.000000 0.000000 0.000000 0.000000 10.000000 
planeLockWeightRight 0.000000 0.000000 0.000000 0.000000 0.000000 0.000000 10.000000 
R_Toe1_02 0.000000 0.000000 0.000000 0.000000 0.000000 0.000000 10.000000 
R_Toe1_03 0.000000 0.000000 0.000000 0.000000 0.000000 0.000000 10.000000 
R_Toe2_02 0.000000 0.000000 0.000000 0.000000 0.000000 0.000000 10.000000 
R_Toe2_03 0.000000 0.000000 0.000000 0.000000 0.000000 0.000000 10.000000 
R_Toe3_02 0.000000 0.000000 0.000000 0.000000 0.000000 0.000000 10.000000 
R_Toe3_03 0.000000 0.000000 0.000000 0.000000 0.000000 0.000000 10.000000 
Rear_Leg02 0.000000 0.000000 0.000000 0.000000 0.000000 0.000000 10.000000 
Rear_Leg03 0.000000 0.000000 0.000000 0.000000 0.000000 0.000000 10.000000 
Rear_Leg04 0.000000 0.000000 0.000000 0.000000 0.000000 0.000000 10.000000 
Rear_Foot 0.000000 0.000000 0.000000 0.000000 0.000000 0.000000 10.000000 
planeAlignerCenter 0.000000 0.000000 0.000000 0.000000 0.000000 0.000000 10.000000 
Rear_Toe1_01 0.000000 0.000000 0.000000 0.000000 0.000000 0.000000 10.000000 
Rear_Toe2_01 0.000000 0.000000 0.000000 0.000000 0.000000 0.000000 10.000000 
Rear_Toe3_01 0.000000 0.000000 0.000000 0.000000 0.000000 0.000000 10.000000 
planeLockWeightCenter 0.000000 0.000000 0.000000 0.000000 0.000000 0.000000 10.000000 
Rear_Toe1_02 0.000000 0.000000 0.000000 0.000000 0.000000 0.000000 10.000000 
Rear_Toe1_03 0.000000 0.000000 0.000000 0.000000 0.000000 0.000000 10.000000 
Rear_Toe2_02 0.000000 0.000000 0.000000 0.000000 0.000000 0.000000 10.000000 
Rear_Toe2_03 0.000000 0.000000 0.000000 0.000000 0.000000 0.000000 10.000000 
Rear_Toe3_02 0.000000 0.000000 0.000000 0.000000 0.000000 0.000000 10.000000 
Rear_Toe3_03 0.000000 0.000000 0.000000 0.000000 0.000000 0.000000 10.000000 
Back_Bone 0.000000 0.000000 0.000000 0.000000 0.000000 0.000000 10.000000 
Head 0.000000 0.000000 0.000000 0.000000 0.000000 0.000000 10.000000 
Motor_Bone 0.000000 0.000000 0.000000 0.000000 0.000000 0.000000 10.000000 
Ping_Mechanism 0.000000 0.000000 0.000000 0.000000 0.000000 0.000000 10.000000 
BN_LookIK 0.000000 0.000000 0.000000 0.000000 0.000000 0.000000 10.000000 
bottomMouth 0.000000 0.000000 0.000000 0.000000 0.000000 0.000000 10.000000 
L_Mouth01 0.000000 0.000000 0.000000 0.000000 0.000000 0.000000 10.000000 
L_mouthFront 0.000000 0.000000 0.000000 0.000000 0.000000 0.000000 10.000000 
mouthGun 0.000000 0.000000 0.000000 0.000000 0.000000 0.000000 10.000000 
R_Mouth01 0.000000 0.000000 0.000000 0.000000 0.000000 0.000000 10.000000 
R_mouthFront 0.000000 0.000000 0.000000 0.000000 0.000000 0.000000 10.000000 
TopMouth 0.000000 0.000000 0.000000 0.000000 0.000000 0.000000 10.000000 
weapon_bone 0.000000 0.000000 0.000000 0.000000 0.000000 0.000000 10.000000 
#Beginning of Data. Separated by tabs
#Fr	Tx	Ty	Tz	Rx	Ry	Rz	SF
[Pinger_Root]
42 0.000000 -5314.812500 0.000000 -0.000075 -0.000000 -0.000020 5314.812500
43 0.000000 -5444.442383 0.000000 -0.000075 -0.000000 -0.000020 5444.442383
44 0.000000 -5574.071777 0.000000 -0.000075 -0.000000 -0.000020 5574.071777
[Pelvis]
42 480.872406 146.512634 5050.427246 34.304832 -83.223206 -46.013214 5075.383789
43 489.694183 168.465286 4991.000488 42.544041 -80.694366 -51.902782 5017.794922
44 508.797821 188.184921 4939.253418 44.408718 -78.643730 -51.629692 4968.954590
[L_Hip]
42 5.766392 125.831482 872.656799 -178.250168 -81.786369 87.376007 881.701050
43 5.766392 125.831482 872.656799 -178.250168 -81.786369 87.376007 881.701050
44 5.766392 125.831482 872.656799 -178.250168 -81.786369 87.376007 881.701050
[R_Hip]
42 5.765438 125.836372 -872.654907 -1.748770 81.786041 87.376961 881.699829
43 5.765438 125.836372 -872.654907 -1.748770 81.786041 87.376961 881.699829
44 5.765438 125.836372 -872.654907 -1.748770 81.786041 87.376961 881.699829
[Rear_Leg01]
42 -192.298416 -925.602966 -0.001907 165.539627 -2.920980 163.275269 945.367432
43 -192.298416 -925.602966 -0.001907 167.717865 -1.682048 164.308868 945.367432
44 -192.298416 -925.602966 -0.001907 169.665939 -0.496691 164.662338 945.367432
[Spine1]
42 290.604584 5.007505 0.000477 6.429111 -9.377124 24.187246 290.647736
43 290.604584 5.007505 0.000477 3.939960 -9.599926 26.074587 290.647736
44 290.604584 5.007505 0.000477 1.675514 -9.953548 27.121546 290.647736
[L_Leg01]
42 761.932007 -0.002384 -0.069261 64.745506 20.082939 -71.844200 761.932068
43 761.932007 -0.002384 -0.069261 59.864887 33.407406 -83.153931 761.932068
44 761.932007 -0.002384 -0.069261 58.381649 30.107391 -83.295601 761.932068
[L_Leg02]
42 1441.140503 -0.000954 -0.000715 1.262655 -0.122348 -112.805138 1441.140503
43 1441.140503 -0.000954 -0.000715 -1.539672 0.341411 -81.999908 1441.140503
44 1441.140503 -0.000954 -0.000715 -1.286591 0.849172 -64.790352 1441.140503
[L_Leg03]
42 1686.963989 -0.000715 -0.000954 -0.027437 0.010374 117.729256 1686.963989
43 1686.963989 -0.000715 -0.000954 0.012206 -0.005292 106.406586 1686.963989
44 1686.963989 -0.000715 -0.000954 0.122861 -0.006818 76.714325 1686.963989
[L_Foot]
42 3041.570068 -30.715107 11.297464 -25.257912 7.053979 59.528500 3041.746094
43 3041.570068 -30.715107 11.297464 -25.783215 6.755404 63.336884 3041.746094
44 3041.570068 -30.715107 11.297464 -26.999689 6.294462 85.451050 3041.746094
[L_Toe1_01]
42 -188.216690 -224.732346 -21.137953 88.691048 -1.792133 -139.672867 293.899567
43 -188.216690 -224.732346 -21.137953 89.041458 -2.032872 -151.330872 293.899567
44 -188.216690 -224.732346 -21.137953 89.233749 -2.123807 -157.877930 293.899567
[L_Toe2_01]
42 200.746536 -219.926590 148.838394 -73.929466 -3.614537 -71.727211 332.896027
43 200.746536 -219.926590 148.838394 -75.307571 -6.631004 -61.258354 332.896027
44 200.746536 -219.926590 148.838394 -76.712158 -8.894030 -53.170139 332.896027
[L_Toe3_01]
42 188.832520 -219.859131 -191.078659 -110.448608 4.306504 -72.801888 347.140900
43 188.832520 -219.859131 -191.078659 -108.811089 8.107385 -62.691303 347.140900
44 188.832520 -219.859131 -191.078659 -107.223381 10.826004 -55.312725 347.140900
[planeAlignerLeft]
42 76.751343 -757.746948 -10.944803 0.000000 -90.000000 -90.001900 761.702698
43 92.375862 -752.359497 -6.838442 0.000000 -90.000000 -90.001900 758.040161
44 112.939133 -749.301575 0.038958 0.000000 -90.000000 -90.001900 757.765198
[L_Toe1_02]
42 413.761139 0.000477 0.000000 0.001479 -15.076690 0.001479 413.761139
43 413.761139 0.000477 0.000000 0.001460 -16.974566 0.001460 413.761139
44 413.761139 0.000477 0.000000 0.001424 -20.961039 0.001424 413.761139
[L_Toe1_03]
42 464.317322 0.000358 -0.000089 -179.997635 74.038864 -179.994095 464.317322
43 464.317322 0.000358 -0.000089 -179.995392 79.651360 -179.991882 464.317322
44 464.317322 0.000358 -0.000089 0.043953 86.939957 0.043953 464.317322
[L_Toe2_02]
42 342.235809 -0.000477 0.000238 0.001181 -77.443008 0.001181 342.235809
43 342.235809 -0.000477 0.000238 0.001185 -74.388252 0.001185 342.235809
44 342.235809 -0.000477 0.000238 -0.008632 -64.891273 0.007454 342.235809
[L_Toe2_03]
42 420.210846 -0.000715 0.000000 -179.996063 78.414101 -179.992554 420.210846
43 420.210846 -0.000715 0.000000 -179.929779 89.084862 -179.926285 420.210846
44 420.210846 -0.000715 0.000000 -0.001414 69.250771 -0.004969 420.210846
[L_Toe3_02]
42 329.270111 0.000954 0.000000 0.001177 -81.149315 0.001177 329.270111
43 329.270111 0.000954 0.000000 0.001180 -78.454552 0.001180 329.270111
44 329.270111 0.000954 0.000000 -0.010873 -70.434761 0.009706 329.270111
[L_Toe3_03]
42 439.137451 -0.001907 0.000954 -179.997086 75.908730 -179.993561 439.137451
43 439.137451 -0.001907 0.000954 -179.986069 85.800072 -179.982559 439.137451
44 439.137451 -0.001907 0.000954 -0.002458 74.355438 -0.005988 439.137451
[planeLockWeightLeft]
42 647.995667 0.098267 0.076294 -0.011826 -0.004376 0.005620 647.995667
43 895.996216 0.097656 0.076218 -0.011826 -0.004376 0.005620 895.996216
44 999.997742 0.098267 0.076175 -0.011826 -0.004376 0.005620 999.997742
[R_Leg01]
42 761.455627 -0.001907 -0.000358 107.104378 -32.013638 70.801331 761.455688
43 761.455627 -0.001907 -0.000358 110.371834 -33.071941 66.779617 761.455688
44 761.455627 -0.001907 -0.000358 113.216614 -34.219547 62.932789 761.455688
[R_Leg02]
42 1441.140625 0.000000 -0.000238 -0.094456 -0.001625 -123.455811 1441.140625
43 1441.140625 0.000000 -0.000238 -0.204793 -0.009153 -129.504913 1441.140625
44 1441.140625 0.000000 -0.000238 -0.300422 -0.004494 -134.485962 1441.140625
[R_Leg03]
42 1686.963989 0.000954 0.001431 -0.004586 0.000746 108.467865 1686.963989
43 1686.963989 0.000954 0.001431 -0.002565 0.002208 109.244278 1686.963989
44 1686.963989 0.000954 0.001431 -0.000524 0.003643 110.020699 1686.963989
[R_Foot]
42 3041.560059 -30.531288 -11.204481 3.620989 -6.159134 64.542465 3041.734131
43 3041.560059 -30.531288 -11.204481 3.349746 -5.689983 65.426208 3041.734131
44 3041.560059 -30.531288 -11.204481 2.941546 -5.374097 65.944984 3041.734131
[planeAlignerRight]
42 7.581868 -776.294678 2.890353 0.000000 -89.960434 -90.005180 776.337097
43 3.203802 -795.141357 1.174037 0.000000 -89.960434 -90.005180 795.148621
44 0.234115 -807.634583 0.045488 0.000000 -89.960434 -90.005180 807.634644
[R_Toe1_01]
42 -188.383347 -224.864899 21.052242 90.970291 1.729105 -152.628815 294.101532
43 -188.383347 -224.864899 21.052242 91.004112 1.777032 -150.845886 294.101532
44 -188.383347 -224.864899 21.052242 91.057648 1.807592 -149.628540 294.101532
[R_Toe2_01]
42 200.637817 -220.002121 -148.787384 -104.213356 9.615092 -56.002781 332.857574
43 200.637817 -220.002121 -148.787384 -104.516884 9.436057 -57.440231 332.857574
44 200.637817 -220.002121 -148.787384 -104.687988 9.322068 -58.274410 332.857574
[R_Toe3_01]
42 188.606735 -220.092957 191.126343 -71.406670 -12.120479 -58.015438 347.192566
43 188.606735 -220.092957 191.126343 -71.111214 -11.655502 -59.408916 347.192566
44 188.606735 -220.092957 191.126343 -70.945999 -11.384548 -60.231731 347.192566
[planeLockWeightRight]
42 999.999695 -0.000747 0.076034 -0.011823 -0.004379 -0.000027 999.999695
43 999.999695 -0.000737 0.076030 -0.011823 -0.004379 -0.000027 999.999695
44 999.999756 -0.000726 0.076027 -0.011823 -0.004379 -0.000027 999.999756
[R_Toe1_02]
42 413.762085 0.000477 -0.000119 0.001394 -24.679718 0.001394 413.762085
43 413.762085 0.000477 -0.000119 0.001392 -24.931355 0.001392 413.762085
44 413.762085 0.000477 -0.000119 0.001390 -25.182983 0.001390 413.762085
[R_Toe1_03]
42 464.317810 0.000000 0.001088 0.006591 69.485031 0.006591 464.317810
43 464.317810 0.000000 0.001088 0.005781 66.573265 0.005781 464.317810
44 464.317810 0.000000 0.001088 0.005322 64.520393 0.005322 464.317810
[R_Toe2_02]
42 342.234741 -0.000954 0.000238 0.000480 -71.614052 0.000480 342.234741
43 342.234741 -0.000954 0.000238 0.001190 -70.816475 0.001190 342.234741
44 342.234741 -0.000954 0.000238 0.001191 -70.471367 0.001191 342.234741
[R_Toe2_03]
42 420.210846 0.000715 -0.000268 0.020205 83.340057 0.020204 420.210846
43 420.210846 0.000715 -0.000268 0.015896 81.531952 0.015896 420.210846
44 420.210846 0.000715 -0.000268 0.013868 80.290436 0.013868 420.210846
[R_Toe3_02]
42 329.270355 -0.000477 -0.000954 0.001183 -75.857178 0.001183 329.270355
43 329.270355 -0.000477 -0.000954 0.001183 -75.203720 0.001183 329.270355
44 329.270355 -0.000477 -0.000954 0.001184 -74.932709 0.001184 329.270355
[R_Toe3_03]
42 439.137939 0.000238 0.001431 -0.020928 86.565384 -0.017430 439.137939
43 439.137939 0.000238 0.001431 -0.015067 85.053001 -0.011567 439.137939
44 439.137939 0.000238 0.001431 -0.012752 84.010376 -0.009250 439.137939
[Rear_Leg02]
42 1162.777710 -0.029802 0.005960 0.422110 -0.472249 -130.841995 1162.777710
43 1162.777710 -0.029802 0.005960 1.513129 -1.657976 -133.531525 1162.777710
44 1162.777710 -0.029802 0.005960 2.729474 -2.835621 -134.520050 1162.777710
[Rear_Leg03]
42 607.192505 -0.013351 -0.073195 0.010251 -0.005574 73.420700 607.192505
43 607.192505 -0.013351 -0.073195 0.010204 -0.005659 74.379951 607.192505
44 607.192505 -0.013351 -0.073195 0.010179 -0.005705 74.889885 607.192505
[Rear_Leg04]
42 995.874512 -0.020504 -0.011921 -0.045039 -0.018434 78.900024 995.874573
43 995.874512 -0.020504 -0.011921 -0.045456 -0.017382 81.564545 995.874573
44 995.874512 -0.020504 -0.011921 -0.045674 -0.016799 83.029236 995.874573
[Rear_Foot]
42 3096.176270 -0.067472 -0.041425 -166.565598 87.127579 -29.864332 3096.176270
43 3096.176270 -0.067472 -0.041425 -141.396744 86.515411 -6.938398 3096.176270
44 3096.176270 -0.067472 -0.041425 -125.192749 85.500977 7.021860 3096.176270
[planeAlignerCenter]
42 1.037302 109.635933 -779.265747 0.000009 0.000003 -179.999985 786.941101
43 1.037369 113.927544 -797.381226 0.000009 0.000003 -179.999985 805.479614
44 1.036530 116.113853 -809.313721 0.000009 0.000003 -179.999985 817.601501
[Rear_Toe1_01]
42 0.653352 83.966492 -371.173737 0.061144 28.273109 90.027893 380.553192
43 0.653352 83.966492 -371.173737 0.059916 29.693022 90.025772 380.553192
44 0.653352 83.966492 -371.173737 0.061918 30.562214 90.031929 380.553192
[Rear_Toe2_01]
42 178.200760 -294.826019 -362.060547 1.782577 52.065086 -68.667877 499.765686
43 178.200760 -294.826019 -362.060547 1.948485 53.387047 -68.477554 499.765686
44 178.200760 -294.826019 -362.060547 2.064775 54.231113 -68.360245 499.765686
[Rear_Toe3_01]
42 -153.359680 -308.780914 -362.060852 -2.146898 52.058445 -113.955139 499.952881
43 -153.359680 -308.780914 -362.060852 -2.342217 53.377758 -114.173828 499.952881
44 -153.359680 -308.780914 -362.060852 -2.452549 54.214348 -114.295929 499.952881
[planeLockWeightCenter]
42 1000.000000 0.000256 0.076245 -0.011814 -0.004373 -0.000015 1000.000000
43 1000.000000 0.000272 0.076246 -0.011814 -0.004373 -0.000015 1000.000000
44 1000.000000 0.000289 0.076246 -0.011814 -0.004373 -0.000015 1000.000000
[Rear_Toe1_02]
42 379.707825 0.194073 0.000477 -0.000767 -33.624729 0.000838 379.707855
43 379.707825 0.194073 0.000477 -0.000767 -33.624729 0.000838 379.707855
44 379.707825 0.194073 0.000477 -0.000767 -33.624729 0.000838 379.707855
[Rear_Toe1_03]
42 500.129700 0.165701 0.000119 -0.001631 58.273502 0.003823 500.129761
43 500.129700 0.165701 0.000119 0.000285 55.405315 0.007609 500.129761
44 500.129700 0.165701 0.000119 0.000055 53.403427 0.007421 500.129761
[Rear_Toe2_02]
42 340.494507 0.000238 -0.000954 0.001175 -84.616890 0.001175 340.494507
43 340.494507 0.000238 -0.000954 0.001175 -84.171936 0.001175 340.494507
44 340.494507 0.000238 -0.000954 0.001175 -83.726707 0.001175 340.494507
[Rear_Toe2_03]
42 433.103577 0.000000 0.000238 179.982727 82.208443 179.982727 433.103546
43 433.103577 0.000000 0.000238 179.979568 83.412842 179.979568 433.103546
44 433.103577 0.000000 0.000238 179.976410 84.296967 179.976410 433.103546
[Rear_Toe3_02]
42 340.494141 -0.000358 -0.000477 0.001175 -84.489929 0.001175 340.494171
43 340.494141 -0.000358 -0.000477 0.001175 -84.038719 0.001175 340.494171
44 340.494141 -0.000358 -0.000477 0.001175 -83.587364 0.001175 340.494171
[Rear_Toe3_03]
42 433.103577 0.001431 -0.000238 -179.992950 82.524010 -179.989441 433.103546
43 433.103577 0.001431 -0.000238 -179.991241 83.737816 -179.987732 433.103546
44 433.103577 0.001431 -0.000238 -179.989471 84.630852 -179.985977 433.103546
[Back_Bone]
42 1312.175781 -701.934692 0.000954 1.019727 3.184313 -80.531158 1488.125488
43 1312.175781 -701.934692 0.000954 0.692627 3.184909 -80.348091 1488.125488
44 1312.175781 -701.934692 0.000954 0.365533 3.186547 -80.165024 1488.125488
[Head]
42 1406.159424 809.709290 0.001431 1.835659 -0.170691 23.666857 1622.625488
43 1406.159424 809.709290 0.001431 1.522835 0.106652 24.474146 1622.625488
44 1406.159424 809.709290 0.001431 1.214813 0.325153 24.741451 1622.625488
[Motor_Bone]
42 1158.364380 -417.834747 0.000477 1.113721 -1.125686 -107.115891 1231.419434
43 1158.364380 -417.834747 0.000477 -1.034866 -1.069922 -107.053192 1231.419434
44 1158.364380 -417.834747 0.000477 -2.188870 -0.972377 -106.959076 1231.419434
[Ping_Mechanism]
42 1194.305664 -419.091278 24.397614 0.000103 -0.000053 82.120995 1265.937866
43 1184.070435 -411.971527 29.131588 0.000103 -0.000053 82.120995 1254.030273
44 1177.490356 -407.148193 35.325012 0.000103 -0.000053 82.120995 1246.395264
[BN_LookIK]
42 193.241119 1380.371704 -0.002861 0.000000 89.965736 -31.038179 1393.832153
43 193.241119 1380.371704 -0.002861 0.000000 89.965736 -31.038179 1393.832153
44 193.241119 1380.371704 -0.002861 0.000000 89.965736 -31.038179 1393.832153
[bottomMouth]
42 -435.092926 615.759399 -0.000954 -0.000022 0.000016 73.527184 753.966492
43 -435.092926 615.759399 -0.000954 -0.000022 0.000016 73.527184 753.966492
44 -435.092926 615.759399 -0.000954 -0.000022 0.000016 73.527184 753.966492
[L_Mouth01]
42 554.440979 7.658243 838.222046 150.204178 23.759130 109.605339 1005.027161
43 554.440979 7.658243 838.222046 150.204178 23.759130 109.605339 1005.027161
44 554.440979 7.658243 838.222046 150.204178 23.759130 109.605339 1005.027161
[L_mouthFront]
42 551.629089 934.514771 339.150421 0.000081 2.804060 79.119301 1136.941284
43 551.629089 934.514771 339.150421 0.000081 2.804060 79.119301 1136.941284
44 551.629089 934.514771 339.150421 0.000081 2.804060 79.119301 1136.941284
[mouthGun]
42 55.332661 1627.420898 0.000000 0.000023 0.000009 -11.038128 1628.361328
43 55.332661 1627.420898 0.000000 0.000023 0.000009 -11.038128 1628.361328
44 55.332661 1627.420898 0.000000 0.000023 0.000009 -11.038128 1628.361328
[R_Mouth01]
42 554.442383 7.659197 -838.223938 29.795891 -23.759109 109.605331 1005.029541
43 554.442383 7.659197 -838.223938 29.795891 -23.759109 109.605331 1005.029541
44 554.442383 7.659197 -838.223938 29.795891 -23.759109 109.605331 1005.029541
[R_mouthFront]
42 551.629089 934.514282 -339.151367 0.000029 -2.803930 79.119133 1136.941162
43 551.629089 934.514282 -339.151367 0.000029 -2.803930 79.119133 1136.941162
44 551.629089 934.514282 -339.151367 0.000029 -2.803930 79.119133 1136.941162
[TopMouth]
42 461.269867 -56.106091 -0.008583 -0.000059 -0.000268 92.025169 464.669525
43 461.269867 -56.106091 -0.008583 -0.000059 -0.000268 92.025169 464.669525
44 461.269867 -56.106091 -0.008583 -0.000059 -0.000268 92.025169 464.669525
[weapon_bone]
42 -987.239868 1448.372803 0.001431 0.000000 89.965736 -31.038221 1752.833740
43 -987.239868 1448.372803 0.001431 0.000000 89.965736 -31.038221 1752.833740
44 -987.239868 1448.372803 0.001431 0.000000 89.965736 -31.038221 1752.833740
